<svg class="lds-spinner" width="71px"  height="71px"  xmlns="http://www.w3.org/2000/svg" xmlns:xlink="http://www.w3.org/1999/xlink" viewBox="0 0 100 100" preserveAspectRatio="xMidYMid" style="background: rgba(0, 0, 0, 0) none repeat scroll 0% 0%;"><g transform="rotate(0 50 50)">
  <rect x="46" y="6" rx="29.44" ry="3.84" width="8" height="20" fill="currentColor">
    <animate attributeName="opacity" values="1;0" keyTimes="0;1" dur="1.2s" begin="-1.0999999999999999s" repeatCount="indefinite"></animate>
  </rect>
</g><g transform="rotate(30 50 50)">
  <rect x="46" y="6" rx="29.44" ry="3.84" width="8" height="20" fill="currentColor">
    <animate attributeName="opacity" values="1;0" keyTimes="0;1" dur="1.2s" begin="-1s" repeatCount="indefinite"></animate>
  </rect>
</g><g transform="rotate(60 50 50)">
  <rect x="46" y="6" rx="29.44" ry="3.84" width="8" height="20" fill="currentColor">
    <animate attributeName="opacity" values="1;0" keyTimes="0;1" dur="1.2s" begin="-0.8999999999999999s" repeatCount="indefinite"></animate>
  </rect>
</g><g transform="rotate(90 50 50)">
  <rect x="46" y="6" rx="29.44" ry="3.84" width="8" height="20" fill="currentColor">
    <animate attributeName="opacity" values="1;0" keyTimes="0;1" dur="1.2s" begin="-0.7999999999999999s" repeatCount="indefinite"></animate>
  </rect>
</g><g transform="rotate(120 50 50)">
  <rect x="46" y="6" rx="29.44" ry="3.84" width="8" height="20" fill="currentColor">
    <animate attributeName="opacity" values="1;0" keyTimes="0;1" dur="1.2s" begin="-0.7000000000000001s" repeatCount="indefinite"></animate>
  </rect>
</g><g transform="rotate(150 50 50)">
  <rect x="46" y="6" rx="29.44" ry="3.84" width="8" height="20" fill="currentColor">
    <animate attributeName="opacity" values="1;0" keyTimes="0;1" dur="1.2s" begin="-0.6s" repeatCount="indefinite"></animate>
  </rect>
</g><g transform="rotate(180 50 50)">
  <rect x="46" y="6" rx="29.44" ry="3.84" width="8" height="20" fill="currentColor">
    <animate attributeName="opacity" values="1;0" keyTimes="0;1" dur="1.2s" begin="-0.5s" repeatCount="indefinite"></animate>
  </rect>
</g><g transform="rotate(210 50 50)">
  <rect x="46" y="6" rx="29.44" ry="3.84" width="8" height="20" fill="currentColor">
    <animate attributeName="opacity" values="1;0" keyTimes="0;1" dur="1.2s" begin="-0.39999999999999997s" repeatCount="indefinite"></animate>
  </rect>
</g><g transform="rotate(240 50 50)">
  <rect x="46" y="6" rx="29.44" ry="3.84" width="8" height="20" fill="currentColor">
    <animate attributeName="opacity" values="1;0" keyTimes="0;1" dur="1.2s" begin="-0.3s" repeatCount="indefinite"></animate>
  </rect>
</g><g transform="rotate(270 50 50)">
  <rect x="46" y="6" rx="29.44" ry="3.84" width="8" height="20" fill="currentColor">
    <animate attributeName="opacity" values="1;0" keyTimes="0;1" dur="1.2s" begin="-0.19999999999999998s" repeatCount="indefinite"></animate>
  </rect>
</g><g transform="rotate(300 50 50)">
  <rect x="46" y="6" rx="29.44" ry="3.84" width="8" height="20" fill="currentColor">
    <animate attributeName="opacity" values="1;0" keyTimes="0;1" dur="1.2s" begin="-0.09999999999999999s" repeatCount="indefinite"></animate>
  </rect>
</g><g transform="rotate(330 50 50)">
  <rect x="46" y="6" rx="29.44" ry="3.84" width="8" height="20" fill="currentColor">
    <animate attributeName="opacity" values="1;0" keyTimes="0;1" dur="1.2s" begin="0s" repeatCount="indefinite"></animate>
  </rect>
</g></svg>
